# xmcd
#
# Track frame offsets: 
#        150
#        18975
#        43125
#        55200
#        79650
#        104400
#        118575
#        138525
#        159675
#        173250
#        206550
#        226725
#        244800
#        270825
#
# Disc length: 4012 seconds
#
# Revision: 0
# Processed by: cddbd v1.5.2PL0 Copyright (c) Steve Scherf et al.
# Submitted via: ExactAudioCopy v1.3
#
DISCID=b00faa0e
DTITLE=WRFG - 2nd Annual Back Porch Blues Festival - Disc 2
DYEAR=2001
DGENRE=Blues
TTITLE0=Blues Messiah - Steve Avery
TTITLE1=Baby Please Don't Go - Delta Moon
TTITLE2=Jack, She's On the Ball - The Electromatics
TTITLE3=Similar Circumstances - Liz Melendez Band
TTITLE4=Love Me Like A Man - BlueSolution
TTITLE5=This City, That City - X Miss Americas
TTITLE6=Tryin' to Get Over You - Michael Lowry
TTITLE7=Honky Tonk Women - Steve Avery and Friends
TTITLE8=Happy Hour - Slim Fatz
TTITLE9=A Woman Can Tell - Heaven Davis and E.G. Knight
TTITLE10=Don't Let the Green Grass Fool You - Zydeco T
TTITLE11=She's Dynamite - The Electromatics
TTITLE12=Why Do I Plead? - X Miss Americas
TTITLE13=Boogie Me Till I Drop - Forrest McDonald
EXTD=
EXTT0=
EXTT1=
EXTT2=
EXTT3=
EXTT4=
EXTT5=
EXTT6=
EXTT7=
EXTT8=
EXTT9=
EXTT10=
EXTT11=
EXTT12=
EXTT13=
PLAYORDER=
